<?xml version="1.0" encoding="UTF-8"?>
<svg width="800" height="300" version="1.1" viewBox="0 0 800 300" xmlns="http://www.w3.org/2000/svg" xmlns:cc="http://creativecommons.org/ns#" xmlns:dc="http://purl.org/dc/elements/1.1/" xmlns:rdf="http://www.w3.org/1999/02/22-rdf-syntax-ns#"><title>Premium Primes</title><metadata><rdf:RDF><cc:Work rdf:about=""><dc:format>image/svg+xml</dc:format><dc:type rdf:resource="http://purl.org/dc/dcmitype/StillImage"/><dc:title>Premium Primes</dc:title><dc:date>23 September 2018</dc:date><dc:creator><cc:Agent><dc:title>Samuel Newhouse</dc:title></cc:Agent></dc:creator><dc:rights><cc:Agent><dc:title>Samuel Newhouse</dc:title></cc:Agent></dc:rights><dc:language>English</dc:language><dc:description>Made for the "Build a Product Landing Page" project on freeCodeCamp.</dc:description><dc:contributor><cc:Agent><dc:title>Samuel Newhouse</dc:title></cc:Agent></dc:contributor></cc:Work></rdf:RDF></metadata><g transform="translate(0,-217.62498)"><g fill-opacity=".21105526"><g aria-label="2"><path d="m780.45868 330.80878h-11.25v-1.90104l5.44271-5.45573q2.08333-2.08334 2.96875-3.46355 0.89843-1.39322 0.89843-2.96875 0-1.61458-0.92447-2.5-0.92448-0.88541-2.63021-0.88541-2.5 0-4.79167 2.13541v-2.23958q2.1875-1.70573 5.09115-1.70573 2.5 0 3.93229 1.35417t1.43229 3.63281q0 1.79688-0.98958 3.51563-0.98959 1.70573-3.55469 4.24479l-4.3099 4.25781v0.0521h8.6849z" style=""/></g><g aria-label="3"><path d="m181.73911 472.05717v-2.98716q2.48087 1.95768 5.60304 1.95768 2.5315 0 4.03352-1.26574 1.51889-1.26575 1.51889-3.40908 0-4.74233-6.73377-4.74233h-2.00832v-2.34585h1.90706q5.9912 0 5.9912-4.45543 0-4.1179-4.57356-4.1179-2.54837 0-4.80984 1.73829v-2.70026q2.32897-1.38388 5.50178-1.38388 3.05467 0 4.87734 1.62015 1.83955 1.62016 1.83955 4.15165 0 4.77609-4.86046 6.1431v0.0675q2.61587 0.25315 4.15165 1.83956 1.55265 1.56952 1.55265 3.93225 0 3.25719-2.34585 5.26551-2.32898 1.99144-6.15997 1.99144-3.44284 0-5.48491-1.2995z" fill-opacity=".21105526" stroke-width="1.29612494"/></g><g aria-label="5"><path d="m483.33204 435.79299v-3.62952q3.06632 1.98163 6.23695 1.98163 3.17062 0 5.11054-1.7939 1.93992-1.79391 1.93992-4.75593 0-2.94117-1.98164-4.58906t-5.67375-1.64789q-1.25156 0-4.69335 0.25031v-14.99788h14.47639v3.08719h-11.24319v8.76093q1.37672-0.0834 2.54484-0.0834 4.79765 0 7.42593 2.41968 2.62828 2.39883 2.62828 6.59156 0 4.33875-2.83687 6.98789-2.81601 2.64914-7.73882 2.64914-4.15102 0-6.19523-1.23071z" fill-opacity=".21105526" stroke-width="1.60199881"/></g><g aria-label="7"><path d="m388.5403 229.07221-13.33726 32.45086h-3.99178l12.60934-30.19667h-16.97682v-3.4752h21.69652z" fill-opacity=".21105526" stroke-width="1.80334723"/></g><g aria-label="9"><path d="m18.700875 509.38869v-4.64646q3.528954 1.99975 7.46962 1.99975 5.734551 0 8.91061-4.61705 3.205467-4.61705 3.205467-13.11595-0.05882 0.0294-0.117632 0-2.705531 5.44047-9.410545 5.44047-5.411063 0-8.881202-3.67599-3.470138-3.676-3.470138-9.46936 0-6.17567 3.793626-10.11634 3.823034-3.97007 9.76344-3.97007 6.234486 0 9.704625 4.94053 3.499547 4.91113 3.499547 14.32168 0 11.67495-4.528825 17.99766t-12.586605 6.32271q-4.234745 0-7.351988-1.41158zm10.822127-38.0833q-3.499547 0-5.852183 2.64672-2.323228 2.61731-2.323228 6.6756 0 4.4406 2.29382 6.9991 2.293821 2.52908 6.205078 2.52908 3.411323 0 5.763959-2.32323 2.382045-2.32323 2.382045-5.67573 0-4.7935-2.352637-7.82252-2.352636-3.02902-6.116854-3.02902z" fill-opacity=".21105526" stroke-width="2.25853086"/></g><g stroke-width="2.47670269" aria-label="11"><path d="m680.06082 308.66592h-26.15372v-4.64381h10.44859v-35.92509l-10.70658 3.19262v-5.0308l15.99537-4.86956v42.63283h10.41634z"/><path d="m715.66342 308.66592h-26.15372v-4.64381h10.44859v-35.92509l-10.70658 3.19262v-5.0308l15.99537-4.86956v42.63283h10.41634z"/></g><g stroke-width="2.76491857" aria-label="13"><path d="m491.79387 277.23734h-29.19725v-5.18423h11.6645v-40.10572l-11.95252 3.56416v-5.61625l17.85677-5.43623v47.59404h11.6285z"/><path d="m500.72225 275.32925v-6.37227q5.29223 4.17618 11.95252 4.17618 5.40023 0 8.60436-2.70012 3.24014-2.70011 3.24014-7.27231 0-10.11643-14.36461-10.11643h-4.28419v-5.00422h4.06818q12.78055 0 12.78055-9.50441 0-8.78437-9.75642-8.78437-5.43624 0-10.26044 3.70816v-5.76025q4.96821-2.95213 11.7365-2.95213 6.51628 0 10.40445 3.45615 3.92417 3.45615 3.92417 8.85638 0 10.18844-10.36845 13.10456v0.14401q5.58024 0.54002 8.85638 3.92417 3.31214 3.34814 3.31214 8.38836 0 6.9483-5.00421 11.23248-4.96822 4.24818-13.14057 4.24818-7.34431 0-11.7005-2.77212z"/></g><g stroke-width="3.26340532" aria-label="17"><path d="m575.14274 511.52307h-34.46122v-6.11888h13.76749v-47.33638l-14.10743 4.20673v-6.62879l21.07616-6.41633v56.17477h13.725z"/><path d="m623.03152 452.79877-24.13561 58.7243h-7.22368l22.81834-54.64504h-30.7219v-6.28886h39.26285z"/></g><g stroke-width="3.88424158" aria-label="19"><path d="m203.16441 296.8544h-41.01719v-7.28295h16.38664v-56.34173l-16.79125 5.00703v-7.88987l25.08573-7.63698v66.86155h16.33607z"/><path d="m217.78089 295.64058v-7.99102q6.06913 3.43917 12.84632 3.43917 9.86233 0 15.32454-7.94044 5.5128-7.94044 5.5128-22.55693-0.10116 0.0506-0.20231 0-4.653 9.35658-16.18434 9.35658-9.30599 0-15.27397-6.32201-5.96797-6.32201-5.96797-16.28549 0-10.62098 6.52431-17.39817 6.57489-6.82777 16.79125-6.82777 10.72212 0 16.6901 8.49678 6.01855 8.4462 6.01855 24.63054 0 20.0787-7.78871 30.95255-7.78872 10.87386-21.64656 10.87386-7.28295 0-12.64401-2.42765zm18.61199-65.496q-6.01855 0-10.06464 4.55184-3.99551 4.50127-3.99551 11.48077 0 7.63698 3.94494 12.0371 3.94493 4.34954 10.67155 4.34954 5.86682 0 9.9129-3.99551 4.09666-3.99551 4.09666-9.76118 0-8.2439-4.04608-13.45323-4.04609-5.20933-10.51982-5.20933z"/></g><g stroke-width="4.65156794" aria-label="23"><path d="m314.21976 503.93567h-52.33014v-8.84283l25.31713-25.37769q9.69077-9.69077 13.80934-16.1109 4.17915-6.4807 4.17915-13.80934 0-7.51034-4.30028-11.62892t-12.23459-4.11858q-11.62892 0-22.28877 9.93304v-10.41757q10.17531-7.93432 23.68181-7.93432 11.62892 0 18.29133 6.299 6.6624 6.299 6.6624 16.89827 0 8.35829-4.60312 16.35317-4.60311 7.93432-16.53487 19.74494l-20.04777 19.8055v0.24227h40.39838z"/><path d="m330.87577 500.7256v-10.72041q8.90339 7.02581 20.10834 7.02581 9.08509 0 14.47558-4.54255 5.45106-4.54255 5.45106-12.23459 0-17.01941-24.16635-17.01941h-7.20751v-8.41885h6.8441q21.50139 0 21.50139-15.98977 0-14.77842-16.41373-14.77842-9.14567 0-17.26168 6.23843v-9.69076q8.35828-4.96652 19.74493-4.96652 10.96268 0 17.50395 5.81446 6.60184 5.81446 6.60184 14.89955 0 17.14055-17.44338 22.0465v0.24227q9.38793 0.90851 14.89955 6.60183 5.57219 5.63276 5.57219 14.11218 0 11.68949-8.41885 18.89699-8.35829 7.14694-22.10706 7.14694-12.35573 0-19.68437-4.66368z"/></g><g stroke-width="5.54295397" aria-label="29"><path d="m68.279338 328.9826h-62.3582312v-10.53738l30.1686812-30.24086q11.547821-11.54782 16.455644-19.19825 4.979998-7.7226 4.979998-16.45564 0-8.94956-5.124345-13.85739-5.124346-4.90782-14.579124-4.90782-13.857385 0-26.559987 11.83652v-12.41391q12.125211-9.45478 28.219986-9.45478 13.857385 0 21.796512 7.50608 7.939126 7.50609 7.939126 20.13652 0 9.95999-5.485214 19.48694-5.485215 9.45478-19.703469 23.52869l-23.889554 23.60086v0.28869h48.139977z"/><path d="m91.086284 327.25043v-11.40347q8.660865 4.90782 18.332166 4.90782 14.07391 0 21.86868-11.3313 7.86696-11.3313 7.86696-32.18955-0.14435 0.0722-0.2887 0-6.64 13.35217-23.09564 13.35217-13.27999 0-21.796511-9.02173-8.516518-9.02174-8.516518-23.23999 0-15.15652 9.310431-24.82782 9.382608-9.74347 23.961728-9.74347 15.30086 0 23.81738 12.12521 8.58869 12.05304 8.58869 35.14868 0 28.65303-11.11478 44.17041-11.11477 15.51739-30.89042 15.51739-10.393035 0-18.043466-3.46435zm26.559986-93.46517q-8.58869 0-14.3626 6.49565-5.701737 6.42347-5.701737 16.38347 0 10.89825 5.629567 17.17738 5.62956 6.20696 15.22868 6.20696 8.37217 0 14.14608-5.70174 5.84609-5.70174 5.84609-13.92956 0-11.76434-5.77391-19.19825t-15.01217-7.43391z"/></g></g><g stroke-width="2" aria-label="Premium Primes"><path d="m19.369141 377.47653v27.3711h-13.2031254v-74.34375q13.2031254-0.5586 15.4375004-0.5586 17.621093 0 25.746093 5.4336 8.175782 5.38281 8.175782 16.85937 0 25.59375-30.164063 25.59375-2.234375 0-5.992187-0.35547zm0-35.54687v23.8164q3.351562 0.35547 5.28125 0.35547 9.039062 0 13.203125-2.99609 4.164062-3.04688 4.164062-9.85156 0-11.57813-18.636719-11.57813-2.082031 0-4.011718 0.25391z" style=""/><path d="m97.978516 362.29294q-3.402344-2.23438-7.464844-2.23438-4.417969 0-7.871094 4.01172-3.402344 4.01172-3.402344 9.80078v30.97657h-12.695312v-54.38672h12.695312v4.97656q5.332032-5.99219 14.167969-5.99219 6.5 0 9.953127 1.98047z" style=""/><path d="m159.57617 381.53903h-38.84765q0.35546 6.5 4.46875 10.10547 4.11328 3.60547 11.07031 3.60547 8.68359 0 13.20312-4.51953l4.92578 9.69922q-6.70312 5.43359-20.00781 5.43359-12.4414 0-19.70312-7.26172-7.21094-7.3125-7.21094-20.36328 0-12.84766 7.92187-20.82031 7.97266-7.97266 19.09375-7.97266 11.83204 0 18.99219 7.0586 7.16016 7.05859 7.16016 17.97656 0 2.33594-1.06641 7.05859zm-38.39062-9.54687h26.71093q-1.32031-11.9336-13.20312-11.9336-10.86719 0-13.50781 11.9336z" style=""/><path d="m233.7168 404.84763v-34.07422q0-10.71485-9.59766-10.71485-2.84375 0-5.48437 1.67578-2.64063 1.67579-3.70704 3.85938v39.25391h-12.69531v-36.05469q0-4.01172-2.48828-6.34766-2.48828-2.38672-7.00781-2.38672-2.38672 0-5.23047 1.77735-2.79297 1.77734-4.0625 3.91015v39.10157h-12.69531v-54.38672h8.73437l2.58985 4.77343q5.28125-5.78906 13.66015-5.78906 10.81641 0 16.30078 5.89063 2.38672-2.69141 6.65235-4.26563 4.26562-1.625 8.53125-1.625 9.08984 0 14.11718 5.23047 5.07813 5.17969 5.07813 14.26953v35.90235z" style=""/><path d="m270.07617 329.38669q3.04688 0 5.17969 2.18359 2.18359 2.13281 2.18359 5.17969 0 3.04687-2.18359 5.23047-2.13281 2.13281-5.17969 2.13281-3.04687 0-5.23047-2.13281-2.13281-2.1836-2.13281-5.23047 0-3.04688 2.13281-5.17969 2.1836-2.18359 5.23047-2.18359zm-6.55078 75.46094v-43.97657h-6.95703v-10.41015h19.80469v54.38672z" style=""/><path d="m326.24023 404.89841v-4.57032q-2.6914 2.28516-7.41406 3.91016-4.72265 1.625-8.68359 1.625-18.94141 0-18.94141-20.10937v-35.29297h12.69531v34.32812q0 10.46094 9.39454 10.46094 4.3164 0 8.02343-2.23438 3.70703-2.23437 4.92578-5.17968v-37.375h12.69532v54.4375z" style=""/><path d="m415.7168 404.84763v-34.07422q0-10.71485-9.59766-10.71485-2.84375 0-5.48437 1.67578-2.64063 1.67579-3.70704 3.85938v39.25391h-12.69531v-36.05469q0-4.01172-2.48828-6.34766-2.48828-2.38672-7.00781-2.38672-2.38672 0-5.23047 1.77735-2.79297 1.77734-4.0625 3.91015v39.10157h-12.69531v-54.38672h8.73437l2.58985 4.77343q5.28125-5.78906 13.66015-5.78906 10.81641 0 16.30078 5.89063 2.38672-2.69141 6.65235-4.26563 4.26562-1.625 8.53125-1.625 9.08984 0 14.11718 5.23047 5.07813 5.17969 5.07813 14.26953v35.90235z" style=""/><path d="m487.36914 377.47653v27.3711h-13.20312v-74.34375q13.20312-0.5586 15.4375-0.5586 17.62109 0 25.74609 5.4336 8.17578 5.38281 8.17578 16.85937 0 25.59375-30.16406 25.59375-2.23438 0-5.99219-0.35547zm0-35.54687v23.8164q3.35156 0.35547 5.28125 0.35547 9.03906 0 13.20313-2.99609 4.16406-3.04688 4.16406-9.85156 0-11.57813-18.63672-11.57813-2.08203 0-4.01172 0.25391z" style=""/><path d="m565.97852 362.29294q-3.40235-2.23438-7.46485-2.23438-4.41797 0-7.87109 4.01172-3.40235 4.01172-3.40235 9.80078v30.97657h-12.69531v-54.38672h12.69531v4.97656q5.33204-5.99219 14.16797-5.99219 6.5 0 9.95313 1.98047z" style=""/><path d="m588.98242 329.38669q3.04688 0 5.17969 2.18359 2.18359 2.13281 2.18359 5.17969 0 3.04687-2.18359 5.23047-2.13281 2.13281-5.17969 2.13281-3.04687 0-5.23047-2.13281-2.13281-2.1836-2.13281-5.23047 0-3.04688 2.13281-5.17969 2.1836-2.18359 5.23047-2.18359zm-6.55078 75.46094v-43.97657h-6.95703v-10.41015h19.80469v54.38672z" style=""/><path d="m673.07617 404.84763v-34.07422q0-10.71485-9.59765-10.71485-2.84375 0-5.48438 1.67578-2.64062 1.67579-3.70703 3.85938v39.25391h-12.69531v-36.05469q0-4.01172-2.48828-6.34766-2.48829-2.38672-7.00782-2.38672-2.38672 0-5.23047 1.77735-2.79296 1.77734-4.0625 3.91015v39.10157h-12.69531v-54.38672h8.73438l2.58984 4.77343q5.28125-5.78906 13.66016-5.78906 10.8164 0 16.30078 5.89063 2.38672-2.69141 6.65234-4.26563 4.26563-1.625 8.53125-1.625 9.08985 0 14.11719 5.23047 5.07812 5.17969 5.07812 14.26953v35.90235z" style=""/><path d="m748.0293 381.53903h-38.84766q0.35547 6.5 4.46875 10.10547t11.07031 3.60547q8.6836 0 13.20313-4.51953l4.92578 9.69922q-6.70313 5.43359-20.00781 5.43359-12.44141 0-19.70313-7.26172-7.21094-7.3125-7.21094-20.36328 0-12.84766 7.92188-20.82031 7.97266-7.97266 19.09375-7.97266 11.83203 0 18.99219 7.0586 7.16015 7.05859 7.16015 17.97656 0 2.33594-1.0664 7.05859zm-38.39063-9.54687h26.71094q-1.32031-11.9336-13.20313-11.9336-10.86718 0-13.50781 11.9336z" style=""/><path d="m755.84961 401.34372 4.51953-10.10547q5.6875 4.51953 12.84766 4.51953 7.41406 0 7.41406-5.28125 0-3.09765-2.23438-5.07812-2.23437-1.98047-8.68359-4.67188-14.06641-5.83984-14.06641-16.35156 0-7.05859 5.38282-10.96875 5.38281-3.96094 13.76172-3.96094 8.48046 0 15.94531 3.8086l-3.65625 9.85156q-4.16406-3.55469-11.57813-3.55469-6.65234 0-6.65234 5.28125 0 2.08203 2.18359 3.75781 2.1836 1.67578 9.34375 4.51953 7.16016 2.79297 10.3086 6.80469 3.14843 4.01172 3.14843 9.69922 0 7.56641-5.63671 11.93359-5.58594 4.31641-15.23438 4.31641-5.43359 0-8.73437-0.91406-3.25-0.86328-8.37891-3.60547z" style=""/></g><g fill-opacity=".21105526"><g stroke-width="6.29865837" aria-label="31"><path d="m633.47226 509.88722v-14.51644q12.05602 9.5136 27.22857 9.5136 12.30207 0 19.60129-6.15103 7.38124-6.15104 7.38124-16.56679 0-23.04587-32.72349-23.04587h-9.75964v-11.39991h9.26755q29.11489 0 29.11489-21.65164 0-20.01136-22.22573-20.01136-12.38408 0-23.37392 8.44742v-13.1222q11.3179-6.72513 26.73649-6.72513 14.84449 0 23.70198 7.87332 8.9395 7.87332 8.9395 20.17539 0 23.2099-23.61997 29.85301v0.32806q12.71213 1.2302 20.17539 8.9395 7.54526 7.62728 7.54526 19.10921 0 15.82865-11.39991 25.58829-11.3179 9.67763-29.93503 9.67763-16.73081 0-26.65447-6.31506z"/><path d="m794.21925 514.23395h-66.51317v-11.80999h26.57247v-91.36334l-27.22858 8.11937v-12.79415l40.67883-12.38408v108.4222h26.49045z"/></g><g aria-label="37"><path d="m378.92865 502.69719v-16.31159q13.54691 10.69008 30.59575 10.69008 13.82338 0 22.02526-6.91169 8.29402-6.91169 8.29402-18.61549 0-25.8958-36.77019-25.8958h-10.96655v-12.80966h10.41361q32.71534 0 32.71534-24.32915 0-22.48604-24.97424-22.48604-13.91554 0-26.26443 9.49206v-14.74494q12.71751-7.55678 30.04282-7.55678 16.68021 0 26.63305 8.84696 10.04499 8.84697 10.04499 22.67035 0 26.08011-26.54089 33.54473v0.36863q14.28416 1.38234 22.67034 10.04499 8.47834 8.57049 8.47834 21.47232 0 17.78608-12.80967 28.75263-12.71751 10.87439-33.63689 10.87439-18.7998 0-29.95066-7.096z"/><path d="m561.67375 380.22203-52.34454 127.35942h-15.6665l49.48771-118.51245h-66.6287v-13.63907h85.15203z"/></g><g><g stroke-width="7.87537718" aria-label="41"><path d="m374.53966 336.02523h-18.86809v39.06925h-16.61213v-39.06925h-69.11464v-10.97221l65.42306-97.0066h20.30371v94.34046h18.86809zm-35.48022-13.63835v-63.57727q0-6.7679 0.41018-15.17651h-0.41018q-1.43561 3.69158-5.63991 11.27984l-45.2219 67.47394z"/><path d="m482.92865 375.09448h-83.16317v-14.76633h33.22425v-114.23399l-34.0446 10.15185v-15.99686l50.86182-15.48414v135.56314h33.1217z"/></g><g stroke-width="8.95759583" aria-label="43"><path d="m134.16433 462.83625h-21.46091v44.43807h-18.894926v-44.43807h-78.612227v-12.47998l74.413354-110.33704h23.093799v107.30452h21.46091zm-40.355836-15.5125v-72.31392q0-7.69793 0.466542-17.26203h-0.466542q-1.632895 4.19887-6.414944 12.82989l-51.436191 76.74606z"/><path d="m157.60803 501.09265v-20.64446q17.1454 13.5297 38.72294 13.5297 17.4953 0 27.87585-8.74765 10.49718-8.74765 10.49718-23.56034 0-32.77453-46.53751-32.77453h-13.87961v-16.21232h13.1798q41.40555 0 41.40555-30.79173 0-28.45903-31.60818-28.45903-17.61194 0-33.24108 12.01344v-18.66165q16.09568-9.5641 38.02313-9.5641 21.111 0 33.70762 11.19699 12.71325 11.197 12.71325 28.6923 0 33.0078-33.59098 42.45527v0.46654q18.07848 1.74953 28.69229 12.71325 10.73046 10.84709 10.73046 27.17604 0 22.51062-16.21232 36.39023-16.09568 13.76297-42.5719 13.76297-23.79361 0-37.90649-8.98092z"/></g><g stroke-width="10.15121555" aria-label="47"><path d="m640.62294 372.7639h-24.32062v50.35954h-21.41272v-50.35954h-89.08749v-14.14297l84.32911-125.0397h26.1711v121.60309h24.32062zm-45.73334-17.57958v-81.94991q0-8.7237 0.52871-19.56224h-0.52871q-1.85048 4.75838-7.26975 14.5395l-58.29018 86.97265z"/><path d="m783.3744 240.45444-75.07669 182.669h-22.47014l70.9792-169.97998h-95.56417v-19.56223h122.1318z"/></g></g></g></g></svg>
