<?xml version="1.0" encoding="UTF-8"?>
<svg width="250" height="250" version="1.1" viewBox="0 0 250 250.00001" xmlns="http://www.w3.org/2000/svg" xmlns:cc="http://creativecommons.org/ns#" xmlns:dc="http://purl.org/dc/elements/1.1/" xmlns:rdf="http://www.w3.org/1999/02/22-rdf-syntax-ns#"><title>Prime 773</title><metadata><rdf:RDF><cc:Work rdf:about=""><dc:format>image/svg+xml</dc:format><dc:type rdf:resource="http://purl.org/dc/dcmitype/StillImage"/><dc:title>Prime 773</dc:title><dc:date>24 September 2018</dc:date><dc:creator><cc:Agent><dc:title>Samuel Newhouse</dc:title></cc:Agent></dc:creator><dc:rights><cc:Agent><dc:title>Samuel Newhouse</dc:title></cc:Agent></dc:rights><dc:publisher><cc:Agent><dc:title/></cc:Agent></dc:publisher><dc:language>English</dc:language><dc:subject><rdf:Bag/></dc:subject><dc:contributor><cc:Agent><dc:title>Samuel Newhouse</dc:title></cc:Agent></dc:contributor></cc:Work></rdf:RDF></metadata><g transform="translate(0,-872.51965)"><rect x="4.1234894" y="905.0907" width="241.75302" height="184.85793" rx="76.500839" ry="57.67458" fill="#600055" style="paint-order:normal"/><g fill="#00b3bb" stroke-width=".68767333" aria-label="773"><path d="m59.144531 965.02707q-7.22057-0.0645-26.883729-0.58023-4.899673 0-14.634549-0.45128-8.5744264-0.70917-8.5744264-8.31655 0-3.54582 2.5787754-5.93118 2.578775-2.38537 6.317998-2.38537 8.123142 0 24.369424 0.51575 16.310752 0.45129 24.433893 0.45129h11.797896q3.481346 0 6.12459 1.35386 3.287938 1.6762 3.287938 4.96414 0 3.54581-3.868162 8.44549-3.223469 3.61028-6.511407 7.22057-8.187611 9.09018-15.150303 22.3064-2.191959 4.12604-11.540018 24.17604-1.224918 2.6432-5.479897 14.4411-3.223469 8.8968-6.575876 13.9254-2.578775 3.6748-7.156101 3.6748-3.545815 0-6.317999-2.3854-2.772183-2.3854-2.772183-5.9312 0-2.7722 4.319448-12.8939 6.962693-16.2463 13.860916-32.49254 8.896774-18.95399 18.373772-30.10719z"/><path d="m139.86019 965.02707q-7.22057-0.0645-26.88373-0.58023-4.89967 0-14.634546-0.45128-8.574427-0.70917-8.574427-8.31655 0-3.54582 2.578775-5.93118 2.578775-2.38537 6.317998-2.38537 8.12314 0 24.36942 0.51575 16.31076 0.45129 24.4339 0.45129h11.79789q3.48135 0 6.12459 1.35386 3.28794 1.6762 3.28794 4.96414 0 3.54581-3.86816 8.44549-3.22347 3.61028-6.51141 7.22057-8.18761 9.09018-15.1503 22.3064-2.19196 4.12604-11.54002 24.17604-1.22492 2.6432-5.4799 14.4411-3.22346 8.8968-6.57587 13.9254-2.57878 3.6748-7.1561 3.6748-3.54582 0-6.318-2.3854t-2.77218-5.9312q0-2.7722 4.31944-12.8939 6.9627-16.2463 13.86092-32.49254 8.89677-18.95399 18.37377-30.10719z"/><path d="m227.66748 992.36208q13.28069 7.41398 13.28069 23.72472 0 13.1518-9.73487 22.3064-9.73488 9.1547-23.66026 9.1547-10.37957 0-18.69612-4.1905-9.60594-4.8997-12.95835-13.9254-0.51575-1.3539-0.51575-2.9011 0-3.6103 2.90112-5.9957 2.70771-2.192 6.18906-2.192 4.06157 0 6.51141 3.2235 4.12604 5.5444 4.77073 6.0601 3.9971 3.2235 11.7979 3.2235 6.12459 0 10.70191-3.6748 4.6418-3.6747 4.6418-8.8323 0-16.0528-21.59724-18.1803-9.477-0.9026-9.477-7.92976 0-5.35095 7.34951-7.80079 6.96269-1.54727 13.86091-3.159 4.38392-1.35386 6.57588-3.54582 2.19196-2.19195 2.25643-5.22202 0.25788-9.60593-15.02137-9.60593-5.02861 0-11.02426 3.86816-5.99565 3.80369-8.18761 3.80369-3.67475 0-6.25353-2.64324-2.57877-2.64325-2.57877-5.99565 0-5.4799 10.83085-10.89533 9.67041-4.8352 15.73053-4.8352 14.63455 0 23.53132 6.318 9.73488 6.96269 9.73488 19.85657 0 7.09163-2.77219 12.12024-2.70771 4.96414-8.18761 7.86526z"/></g></g></svg>
