<?xml version="1.0" encoding="UTF-8"?>
<svg width="250" height="250" version="1.1" viewBox="0 0 250 250.00001" xmlns="http://www.w3.org/2000/svg" xmlns:cc="http://creativecommons.org/ns#" xmlns:dc="http://purl.org/dc/elements/1.1/" xmlns:rdf="http://www.w3.org/1999/02/22-rdf-syntax-ns#"><title>Prime 41</title><metadata><rdf:RDF><cc:Work rdf:about=""><dc:format>image/svg+xml</dc:format><dc:type rdf:resource="http://purl.org/dc/dcmitype/StillImage"/><dc:title>Prime 41</dc:title><dc:date>24 September 2018</dc:date><dc:creator><cc:Agent><dc:title>Samuel Newhouse</dc:title></cc:Agent></dc:creator><dc:rights><cc:Agent><dc:title>Samuel Newhouse</dc:title></cc:Agent></dc:rights><dc:publisher><cc:Agent><dc:title/></cc:Agent></dc:publisher><dc:language>English</dc:language><dc:subject><rdf:Bag/></dc:subject><dc:contributor><cc:Agent><dc:title>Samuel Newhouse</dc:title></cc:Agent></dc:contributor></cc:Work></rdf:RDF></metadata><g transform="translate(0,-872.51965)" stroke="#ffa002" stroke-linejoin="round"><circle cx="105.05586" cy="1017.4637" r="93.43911" fill="#005d60" stroke-dashoffset="3.99359989" stroke-width="2" style="paint-order:normal"/><g fill="none" stroke-linecap="round" stroke-width="3.92087102" aria-label="41"><path d="m113.98013 969.50417h-48.200555l-1.171541-5.69035 47.196376-75.64809h23.93291v68.95357h15.89949v12.05014h-15.89949v19.9162q5.18826 3.1799 14.56059 4.5188l-0.83682 6.19243h-51.882538l1.004178-6.19243q9.70706-1.17154 15.3974-4.5188zm0-12.05014v-45.85748l-27.614901 45.85748z"/><path d="m199.80337 906.57566h-22.42665v-9.70705q24.9371-1.841 41.6734-9.37233l5.52298 2.51044v96.73584q3.1799 1.84099 10.04178 3.34726 6.86189 1.3389 10.8786 1.67363l-0.50209 8.03342h-68.28412l0.33473-8.03342q14.89531-1.67363 22.76137-5.02089z"/></g></g></svg>
