<?xml version="1.0" encoding="UTF-8"?>
<svg width="250" height="250" version="1.1" viewBox="0 0 250 250.00001" xmlns="http://www.w3.org/2000/svg" xmlns:cc="http://creativecommons.org/ns#" xmlns:dc="http://purl.org/dc/elements/1.1/" xmlns:rdf="http://www.w3.org/1999/02/22-rdf-syntax-ns#"><title>Prime 2</title><metadata><rdf:RDF><cc:Work rdf:about=""><dc:format>image/svg+xml</dc:format><dc:type rdf:resource="http://purl.org/dc/dcmitype/StillImage"/><dc:title>Prime 2</dc:title><dc:date>24 September 2018</dc:date><dc:creator><cc:Agent><dc:title>Samuel Newhouse</dc:title></cc:Agent></dc:creator><dc:rights><cc:Agent><dc:title>Samuel Newhouse</dc:title></cc:Agent></dc:rights><dc:publisher><cc:Agent><dc:title/></cc:Agent></dc:publisher><dc:language>English</dc:language><dc:subject><rdf:Bag/></dc:subject><dc:contributor><cc:Agent><dc:title>Samuel Newhouse</dc:title></cc:Agent></dc:contributor></cc:Work></rdf:RDF></metadata><g transform="translate(0,-872.51965)"><path transform="matrix(1.0460817 .53348752 -.53348752 1.0460817 527.76526 -85.228825)" d="m191.45977 912.48843-22.19847 65.46102 41.34057 55.39745-69.11683-0.8835-39.91114 56.436-20.518075-66.007-66.007011-20.5181 56.435964-39.91113-0.883438-69.11684 55.39742 41.34058z" fill="#decf2f" stroke="#040404" stroke-dashoffset="3.99359989" stroke-linecap="round" stroke-linejoin="round" stroke-width="2" style="paint-order:normal"/><g transform="scale(1.1454534 .87301674)" aria-label="2"><path d="m149.22737 1206.5473q0.71233 0 0.71233 0.7123v13.3562q0 0.7123-0.71233 0.7123h-74.794636q-0.178083 0-0.267124-0.089-0.08904-0.089-0.267124-0.2671l-2.760278-4.5411q-0.178083-0.2672-0.178083-0.6233 0-0.3562 0.356165-0.5343 26.00004-22.3493 42.29459-44.9658 5.07535-7.1233 9.17124-17.8082 4.18494-10.774 4.18494-20.5686 0-11.1301-5.78768-18.6096-6.23289-8.1918-16.82879-8.1918-7.657548 0-14.246599 3.2945-0.801372 0.1781-1.068495 1.6918l-2.938361 18.4316q0 0.5342-0.71233 0.5342h-7.479463q-0.71233 0-0.71233-0.7123v-24.3083q0-0.7123 0.71233-1.2466 5.164391-3.1164 15.22605-5.3424 7.568508-1.6028 16.472628-1.6028 15.7603 0 25.55483 7.6576 10.95208 8.5479 10.95208 22.4384 0 10.774-5.52056 23.774-4.45206 10.3288-11.6644 19.9452-11.6644 15.4932-35.171289 36.8631z"/></g></g></svg>
