<?xml version="1.0" encoding="UTF-8"?>
<svg width="250" height="250" version="1.1" viewBox="0 0 250 250.00001" xmlns="http://www.w3.org/2000/svg" xmlns:cc="http://creativecommons.org/ns#" xmlns:dc="http://purl.org/dc/elements/1.1/" xmlns:rdf="http://www.w3.org/1999/02/22-rdf-syntax-ns#"><title>Prime 61</title><metadata><rdf:RDF><cc:Work rdf:about=""><dc:format>image/svg+xml</dc:format><dc:type rdf:resource="http://purl.org/dc/dcmitype/StillImage"/><dc:title>Prime 61</dc:title><dc:date>24 September 2018</dc:date><dc:creator><cc:Agent><dc:title>Samuel Newhouse</dc:title></cc:Agent></dc:creator><dc:rights><cc:Agent><dc:title>Samuel Newhouse</dc:title></cc:Agent></dc:rights><dc:publisher><cc:Agent><dc:title/></cc:Agent></dc:publisher><dc:language>English</dc:language><dc:subject><rdf:Bag/></dc:subject><dc:contributor><cc:Agent><dc:title>Samuel Newhouse</dc:title></cc:Agent></dc:contributor></cc:Work></rdf:RDF></metadata><g transform="translate(0,-872.51965)"><rect y="872.51965" width="250" height="250" fill="#000201" style="paint-order:normal"/><g fill="#00fc86" stroke="#ff0" stroke-linecap="square" stroke-width="1.07733226" aria-label="61"><path d="m33.948589 1032.4197q1.413999 0.101 2.423998 2.424 0.908999 2.323 2.827997 2.121 0.605999-2.02 3.130997-4.949 2.423997-2.727 2.928997-4.949-3.029997-0.808-1.918998-3.535 0.202-0.404 2.726997-4.04-0.908999-1.414-2.524997-0.101-1.413999 1.313-2.019998 0.101 4.544995-3.03 3.231996-9.696-2.524997-12.726-2.524997-13.029 10.705989-1.717 14.442985-8.38299 5.958995 0.404 13.230987-2.929 7.473993-3.43399 14.038986-3.13099 0.606-1.111 3.534997-3.737 2.423997-2.02 2.524997-4.64599-11.412988-1.313-21.613978 3.23199-4.746995 2.222-14.038986 8.98899 2.120998-7.67599 0.807999-10.60499-4.544995 2.929-13.533986 14.54399-7.675993 9.89799-15.250985 12.72599 1.009999 5.353-4.645996 12.827-2.322997 3.232-2.625997 5.252-0.605999 2.929 1.918998 6.161 7.675992-5.555 8.079992-5.757 5.554994-2.929 10.09999-0.303-3.029997-1.515-6.160994 0.404-2.928997 1.717-4.443995 0.404-0.909 1.818-3.938997 3.535-3.433996 2.02-4.342995 3.232 1.312998 1.212 1.514998 4.545 3.231997 1.515 6.059994 0.808 5.352995-1.515 6.059994-1.515zm-5.453994-79.18395q0.101 0.909 1.413998 2.42399 1.110999 1.313 0.807999 2.929 3.130997-2.525 8.584992-3.434 6.362993-1.00999 8.180992-1.91899 0.908999 0.707 6.059994 9.89799-0.707-6.767 3.736996-11.91799 4.039996-4.747 10.20099-6.06 6.261993-1.41399 10.806989 1.616 5.049995 3.333 5.554994 11.00899 2.221998 0.202 5.958994-0.404 3.635997-0.606 6.160994-0.303 0.908999-2.121 2.524998-7.06999 1.514995-4.444 2.524995-6.66599 3.232-6.969 9.39299-9.79699-7.87799-8.08-22.219975-11.10999-13.533986-2.929-28.178972-0.404-15.149985 2.62599-25.653974 9.89799-11.513989 8.07999-14.240986 19.79598 1.211999-0.101 4.241996 1.717 2.221998 1.31299 4.140996-0.202zm68.376931 108.67585q-2.120998-0.101-2.322997 0.808-0.908999-0.707 0.807999-2.121 2.120998-1.717 2.221998-2.424 0.908999 0.404 0.807999 0.808 0 0.202-0.706999 0.606-1.514999 1.01-0.808 2.323zm-7.574992-19.6949q0.101-4.141 0.101-4.04 0.303-2.02 2.120998-2.02-0.101 0.303-0.505 3.737-0.202 2.222-1.716998 2.323zm-41.005959 13.6349q-1.615999-7.3729-6.059994-12.8269 1.514998-1.919 1.817998-4.747 0.404-4.747 0.505-5.151 1.918998 6.363-0.808 9.09 4.948995 11.6149 5.352995 13.6349-0.605999 0.707-1.110999 0.505-0.605999-0.202 0.303-0.505zm61.508935-32.5219q-0.909 5.05-8.07999 7.676-2.221996 0.808-5.958993 1.717-4.140995 0.909-4.948995 1.212 6.564994-4.04 12.826988-3.838 1.717-1.414 1.919-4.545 0.303-3.434 1.111-4.545 0.909 0.404 0.202 2.222t0.606 2.323q2.82799-5.252 9.69599-2.323 5.55499 2.525 7.77699 6.161 2.121-4.747 1.818-13.635-0.303-9.393-3.333-12.221-0.808 0.606-1.313 2.525-0.505 2.222-1.01 2.828-5.65599 1.717-15.14998 11.413-0.404-3.03 4.74699-6.161 5.757-3.434 6.666-6.06h3.02999q-0.303 0.909 2.222-6.06-20.80598-2.424-25.047974-2.222-0.303 1.111 0.605999 1.717 0.908999 0.707 0.908999 1.313-2.019998-1.313-5.857994-1.515-5.049995-0.303-6.968993-0.808 8.281992 13.534 3.736996 34.138 0.807999 0.101-6.059994 4.545-6.463993 4.343-14.240986 2.121-7.473992-2.02-11.513988-8.888-1.413999 0.303-3.837996-0.505-1.918998-0.505-3.029997 0.505-1.211999-2.02-1.110999-1.717-0.202-0.505 0.404-2.121-6.867994 0.909-10.60499 9.09-2.726997 0.606-4.140996-1.919-1.615998-2.626-3.433996-2.626-4.645996 2.828-9.089991 1.515 6.867993 17.7759 21.916978 25.0479 0.101-0.101 0.706999-1.616 0.404-1.01 1.615999-0.707 0 0.707-1.009999 1.313-0.808 0.606-0.505 1.717 7.574993 3.737 31.107969 5.353 1.312999-0.404 2.221998-1.919 1.817998-3.03 1.514998-2.626 0.303 2.323-0.706999 3.838 16.260984 0 27.572977-7.474 10.80698-7.171 14.13998-19.0889-0.505 0.303-1.919 2.626-1.01 1.717-2.62599 1.919 0.606-1.818 4.94899-5.656 3.434-3.131 3.333-7.272-0.808-0.303-7.47399-4.646-4.343-2.828-8.383-2.121zm-14.442982-22.018q2.625997-3.939 11.008992-2.121 9.39299 1.919 12.52398-0.202 0.404 0.101 2.727 2.02 1.717 1.414 2.525 0.303-3.838-9.89799-12.52399-17.37198-8.88799-7.575-17.775981-8.383-1.211998 0.606-3.332996 2.626-2.423998 2.323-3.635997 3.131-4.847995 3.63599-10.503989 1.818-1.817998 3.43399-9.089991 5.04999-2.120998 0.505-5.857994 1.01-3.736997 0.505-4.746996 0.707-1.110998 3.535-5.554994 5.45399-1.312999 0.606-4.039996 1.515-2.827997 0.909-4.039996 1.414 2.625997 6.868 3.029997 19.695 2.524998 0 5.453995-1.717 3.231996-1.818 5.150994-2.121 0.101-14.241 14.240986-16.059 9.89799-1.313 24.441976 3.232zm-37.167963 29.593q-1.514999-2.121-1.918998-7.575-0.505-6.565-1.110999-8.383-1.009999 0.707-3.332997 2.02-2.322997 1.212-3.332996 1.919-3.635997 2.626-3.938996 6.666 1.009999 0.505 3.130996-0.505 1.615999-0.707 2.120998 0.505 0 1.01-2.625997 2.121-2.221998 0.808-1.110999 1.717 0.505-0.707 2.221998-1.212 1.716998-0.606 2.322998-1.111 1.110998 1.515 0.706999 3.838 1.312999-0.505 3.938996 0.404 2.120998 0.808 2.928997-0.404zm-34.844965-26.563q7.473992-5.757 17.169983-16.56399 13.735986-15.14998 16.159983-17.57398-1.716998-0.606-3.231996-5.151-1.211999-4.03999-4.342996-3.93899-0.303 2.222-0.807999 2.222-3.736996-2.828-9.493991 0.404-6.261993 3.53499-8.685991 2.62599 0.303-0.505 1.716998-1.313 1.211999-0.707 1.312999-1.71699-1.413999-0.505-5.150995-2.424-3.130997-1.616-5.453994-2.121-6.059994 18.98798-5.352995 34.94597 0.403999 1.11099 2.928997 1.31299 2.625997 0.303 3.231997 0.909-5.352995 0.404-6.867993-1.515 0.504999 2.323 0.605999 11.211 0 7.171 1.716998 9.999 3.130997-2.929 4.039996-4.545 1.716999-3.03 0.505-6.767zm89.48591-43.22796q8.78699-0.505 11.31199-2.323-0.808-1.111-1.818-4.141-1.111-2.92899-1.919-4.14099-8.38299-0.606-7.57499 10.60499zm-9.19099-9.89799q1.414 2.222 0.202 6.05999-1.212 3.636-0.202 5.353 3.939 0.505 6.05999-1.616 1.313-1.414 2.626-4.949 1.414-3.93899 2.323-5.25199 1.717-2.525 4.94899-2.626-0.808-0.606-2.72699-3.737-1.515-2.42399-3.333-3.02999-1.515 1.212-4.848 5.04999-2.92899 3.232-5.04999 4.747z"/><path d="m230.2924 1039.5907q-9.29199 0.606-15.65499 3.333 7.171-4.343 13.93799-4.141 0.808-10.908 4.14099-15.554-1.51499-14.544-1.31299-13.938-1.717-5.959-9.393-3.333-0.50499 1.01 0.909 2.121 1.111 0.808-0.101 1.111-7.37299-4.545-13.12998 5.353-5.151 8.686-4.949 19.291 2.727 1.01 5.555 6.969 2.62599 5.353 5.15099 5.353-1.212 3.03 1.515 6.2619 3.232 3.939 3.434 6.06 5.25199 1.414 7.97899 7.272 3.535 7.676 5.15099 9.191v-32.8249q-0.606-0.909-2.42399-0.404-1.212 0.303-0.808-2.121zm-49.79295-34.744q3.02999-2.121 10.70599-4.949 7.57499-2.727 10.60499-4.949-5.252-11.91798-4.949-19.69498-0.404 0-6.76699 2.929-5.05 2.424-8.78699-0.404-1.111 4.343-0.909 13.02899 0.202 11.81699 0.101 14.03899zm35.34996-46.86396q-2.121 3.434-7.57499 7.37299-6.262 4.545-8.07999 6.666 0.404 3.63599 3.23199 14.13998 2.525 9.39299 2.525 14.54399 2.727-2.323 6.96899-2.929 4.646-0.707 7.777 1.313 1.01-10.80699 0.808-37.77396-1.111-0.404-2.828-1.616-1.717-1.313-2.828-1.717zm-35.34996 56.76196v52.5199q3.83799 1.111 11.81698 0.909 10.80699-0.202 12.82699-0.101 4.545-5.858 5.757-4.949-0.505 1.01-2.121 2.424-1.515 1.414-2.02 2.525 2.323 0.404 4.848-0.808 1.71699-0.707 3.33299 0.808-12.32199-21.5129-27.06797-40.1979 1.515-6.464 0-13.13zm-11.51399-59.99396q0.101-0.80799-0.707-3.43399-0.909-2.828-0.909-4.747 0.404 0 0.505-0.404t-0.505-0.505q-8.58499 6.06-15.65498 9.08999-0.808 0.404-3.03 0.909-2.424 0.505-3.434 0.909-4.03999 1.515-4.24199 4.747 3.13099-2.727 9.08999-3.636 6.46399-1.01 8.18099-2.121 1.313 2.323 5.04999 1.717 3.131-0.505 5.656-2.525zm12.32199 58.27696q6.26199 0.202 10.09999-3.737 2.01999-2.121 5.45399-8.585-4.141-1.919-8.38299 1.212-5.151 3.838-7.97899 3.737 0.404 7.07 0.808 7.373zm-22.21998-35.24898q-0.606 1.01-5.656 5.151-3.83799 3.02999-3.33299 5.45399 6.86799-2.424 9.79699-3.232-1.717-7.87799-0.808-7.37299zm-4.04 1.616q0.101-0.808 3.333-4.343 2.323-2.52499-0.101-3.83799-0.505 0.707-2.727 1.717-1.919 1.01-2.222 2.32299 1.212-0.202 0.909 2.121-0.404 2.222 0.808 2.02zm25.45198-3.333q6.66599 1.919 11.00899-1.212 3.83799-2.62599 5.35299-8.58499-3.535-2.01999-12.01899 0.707-8.38299 2.525-12.62499 0.101-9.89799 4.04-8.18099 12.32199-2.42399-1.01-1.212 0.505 1.414 1.616 2.02 1.111 1.717 0.606 7.17099-3.131 1.515-0.909 4.545-3.131 2.828-2.01999 3.939-2.72699zm-17.27099-13.93798q-2.01999 0.404-3.13099 3.02999-1.616 4.04-1.818 4.343 0.101 0.606 0.808 1.313t0.808 1.212q3.33299-0.404 3.63599-3.636 0.101-1.01-0.101-3.03-0.202-2.32299-0.202-3.23199zm0.808-3.232q-0.909 4.04 0.303 4.242 1.212 0.303 2.222-4.242zm-13.12998 22.11898q-0.808-6.363 4.14099-12.92799 5.05-6.76699 4.848-10.09999-0.404 0-1.111-0.505-0.606-0.404-1.313-0.303v2.525q-4.444-2.828-9.59499-0.303-7.27199 3.434-9.29199 3.535v27.16897q5.85799 0.707 7.37299 0-0.808-3.636 1.313-5.75699 3.939-3.838 3.636-3.333zm69.79093-36.96596q-1.212 1.61599-2.02 6.16099-0.909 4.64599-2.02 6.16099 0.606 0.303 2.323 1.818 1.313 1.212 2.525 1.515-0.101-1.313 0.101-8.38299 0.202-5.151-0.909-7.27199zm-35.24897-18.07899q-0.707 1.515-10.30199 12.92799-6.16099 7.47399-3.73699 15.85698 8.88799-3.83799 12.22098-10.70598 3.333-6.868 1.818-18.07899zm2.424 19.69498q-2.121 3.636-11.00899 9.08999-7.97899 4.848-9.49399 10.70599 5.25199 1.717 17.47298-0.707 11.41299-2.32299 16.96799 0.707 1.71699-1.51499 6.16099-7.47399 3.636-4.74699 6.96899-6.56499 0.101-4.747 4.646-14.24099 3.93899-7.97899 1.919-16.96798-2.727 0.202-16.86699-0.101-10.50399-0.101-15.95798 0.909 0.909 5.25199-0.404 12.82699-1.313 7.27199-0.404 11.81698z"/></g></g></svg>
