<?xml version="1.0" encoding="UTF-8"?>
<svg width="250" height="250" version="1.1" viewBox="0 0 250 250.00001" xmlns="http://www.w3.org/2000/svg" xmlns:cc="http://creativecommons.org/ns#" xmlns:dc="http://purl.org/dc/elements/1.1/" xmlns:rdf="http://www.w3.org/1999/02/22-rdf-syntax-ns#"><title>Prime 3</title><metadata><rdf:RDF><cc:Work rdf:about=""><dc:format>image/svg+xml</dc:format><dc:type rdf:resource="http://purl.org/dc/dcmitype/StillImage"/><dc:title>Prime 3</dc:title><dc:date>24 September 2018</dc:date><dc:creator><cc:Agent><dc:title>Samuel Newhouse</dc:title></cc:Agent></dc:creator><dc:rights><cc:Agent><dc:title>Samuel Newhouse</dc:title></cc:Agent></dc:rights><dc:publisher><cc:Agent><dc:title/></cc:Agent></dc:publisher><dc:language>English</dc:language><dc:subject><rdf:Bag/></dc:subject><dc:contributor><cc:Agent><dc:title>Samuel Newhouse</dc:title></cc:Agent></dc:contributor></cc:Work></rdf:RDF></metadata><g transform="translate(0,-872.51965)"><path d="m 244.99999,1101.4427 -239.9999832,0 L 125,893.59659 Z" style="paint-order:normal"/><g fill="#3effb2" aria-label="3"><path d="m119.66746 1087.7968q-4.07284 0.8145-6.67945 0.8145-2.93244 0-4.23575-1.4662-1.1404-1.4662-1.1404-3.4212 0-3.2582 6.84237-4.2357 22.31914-3.2583 37.14426-12.8702 14.98804-9.7748 14.98804-26.229 0-18.5722-21.99332-18.5722-7.00527 0-13.3589 1.1404-6.19071 0.9775-15.15095 3.0954-8.96024 5.0503-11.89268 6.3536t-5.376141 1.3033q-1.466221 0-2.606615-1.4662-1.140394-1.6292-1.140394-3.5841 0-2.9325 2.769528-4.2358 5.050312-2.2808 8.471502-3.4211 5.37614-1.7921 10.75228-4.5616 14.01056-7.3311 22.48206-15.151 8.4715-7.81982 8.4715-16.29132 0-7.16819-4.88741-9.7748-4.72449-2.76953-13.3589-2.76953-13.19599 0-25.25158 7.49402-3.42118 2.11787-5.864885 4.72449-2.443701 2.4437-3.258269 4.07283-1.46622 2.11788-3.909922 2.11788-5.050317 0-5.050317-4.39867 0-2.93244 6.516538-8.47149 6.516537-5.70197 16.942995-9.93772 10.58938-4.23575 22.48206-4.23575 11.56685 0 17.92047 5.05031 6.51654 4.88741 6.51654 14.4993 0 7.98276-8.4715 17.43175-8.30858 9.2861-18.73504 15.6397l0.65165 0.1629q5.21323-1.3033 8.30859-1.7921 3.09535-0.4887 8.79732-0.4887 12.0556 0 19.87544 6.6795 7.98276 6.6794 7.98276 18.5721 0 18.4092-14.82512 30.139-14.66221 11.8927-40.72836 18.0834z" stroke-width="3.81828403"/></g></g></svg>
