<?xml version="1.0" encoding="UTF-8"?>
<svg width="250" height="250" version="1.1" viewBox="0 0 250 250.00001" xmlns="http://www.w3.org/2000/svg" xmlns:cc="http://creativecommons.org/ns#" xmlns:dc="http://purl.org/dc/elements/1.1/" xmlns:rdf="http://www.w3.org/1999/02/22-rdf-syntax-ns#"><title>Prime 523</title><metadata><rdf:RDF><cc:Work rdf:about=""><dc:format>image/svg+xml</dc:format><dc:type rdf:resource="http://purl.org/dc/dcmitype/StillImage"/><dc:title>Prime 523</dc:title><dc:date>24 September 2018</dc:date><dc:creator><cc:Agent><dc:title>Samuel Newhouse</dc:title></cc:Agent></dc:creator><dc:rights><cc:Agent><dc:title>Samuel Newhouse</dc:title></cc:Agent></dc:rights><dc:publisher><cc:Agent><dc:title/></cc:Agent></dc:publisher><dc:language>English</dc:language><dc:subject><rdf:Bag/></dc:subject><dc:contributor><cc:Agent><dc:title>Samuel Newhouse</dc:title></cc:Agent></dc:contributor></cc:Work></rdf:RDF></metadata><g transform="translate(0,-872.51965)"><g fill="#904f8e" aria-label="523"><path d="m36.720871 976.24033q6.682859-5.85018 15.522177-4.26909 8.531414 1.22936 15.921118 9.67087 8.313417 9.49669 8.667404 19.12709 0.705716 9.3226-8.439249 17.3281-6.331129 5.5422-14.334385 6.3356-8.311159 0.4416-12.929724-4.8343-1.847426-2.1104-2.023855-4.441-0.132604-2.9903 1.977772-4.8377 2.110377-1.8474 4.045453-1.0563t2.858789 1.8463q1.847426 2.1104 1.715951 4.0893 0.176429 2.3306 1.408046 3.7375 2.463235 2.8138 6.860417 1.4496 4.748912-1.6721 8.617935-5.059 5.627671-4.9265 4.43875-11.9622-0.837191-7.34366-8.226895-15.78516-6.158087-7.03459-12.666774-8.79211-6.464863-2.41715-11.740804 2.20141-3.869024 3.38695-5.451242 7.2571-1.582218 3.87016-0.04157 10.59797l-3.473469 2.41939-26.2606475-33.54688 28.8418125-25.24815 3.563377 6.19965-25.324519 22.16911 18.914769 24.44576q-0.793367-8.00325 1.448485-11.82958 2.593581-4.13423 6.110875-7.21328z"/><path d="m138.4243 935.1105q0-8.41427-3.73968-12.62141-3.73968-4.6746-11.21903-4.6746-5.60952 0-9.81666 3.27222-3.73968 2.80476-3.73968 7.47935 0 2.80476 1.86984 4.6746 1.40238 1.86984 1.40238 3.73968 0 2.3373-1.40238 3.73968-0.93492 0.93492-3.27222 0.93492-2.80475 0-4.67459-1.40238-1.40238-1.86984-1.40238-5.60952 0-9.81665 7.01189-14.95871 7.0119-5.14206 14.95872-5.14206 11.21903 0 16.36109 5.60952 5.60952 5.60952 5.60952 14.02379 0 5.60952-2.80476 11.21904-2.3373 5.60951-7.94682 10.75157-13.55633 13.08888-21.03569 21.50315-7.0119 7.94682-8.41428 10.75158h27.58013q4.20714 0 7.0119-3.27222t3.73968-9.81666h2.80476l-2.80476 20.10078-43.47376-1e-5v-6.07697q2.3373-4.20714 7.47935-10.75158 5.60952-6.54443 14.49126-15.42617 7.94681-7.94682 11.68649-14.95871 3.73968-7.0119 3.73968-13.08888z"/><path d="m211.95083 1015.07q-5.85018 6.6828-15.39296 7.6481-9.23487 0.6135-18.02811-7.0841-6.33113-5.5422-7.82457-13.0623-1.49343-7.52004 2.50932-12.09252 1.84743-2.11038 4.48596-2.28568 2.94644-0.52703 4.35336 0.70459 2.11038 1.84742 1.27431 4.22188-0.17643 2.33063-1.10014 3.38582-1.53952 1.75865-3.16669 2.19803-1.93508 0.7911-2.85879 1.84628-1.84743 2.1104-0.61694 5.6726 1.58222 3.8702 4.74778 6.6413 6.33113 5.5423 12.57574 4.7962 6.55251-1.0979 13.32641-8.836 5.54228-6.3311 5.41193-13.27918 0.22138-6.64016-8.92358-14.64567l2.15533-2.46211q7.03459 6.15809 12.97129 5.76366 6.59634-0.43825 11.83071-6.41765 4.31066-4.92421 4.57587-10.90474 0.92484-6.02435-4.70283-10.95082-2.4621-2.15533-6.50756-3.21165-3.73754-1.40805-6.20078 1.40579-2.46323 2.81384-2.37558 4.1331 0.0876 1.31927-0.83607 2.37446-1.53952 1.75865-3.16669 2.19803-1.62717 0.43937-3.38582-1.10015-1.40692-1.23161-1.89012-3.51842-0.13148-1.9789 2.33176-4.79274 4.61856-5.27594 11.96218-4.43875 7.65153 0.48547 13.63093 5.71984 7.03459 6.15809 7.25259 14.42542 0.5259 7.91561-3.78476 12.83982-4.61857 5.27594-10.81935 6.68173-5.54115 1.36196-12.70834-1.80586 5.27481 9.58773 4.08589 16.62349-1.18892 7.0357-5.19168 11.6082z"/></g><path d="m41.653671 1080.4969a83.214287 83.214287 0 0 1 83.214289-83.21424 83.214287 83.214287 0 0 1 83.21428 83.21424" fill="#7b904f" style="paint-order:normal"/></g></svg>
