<?xml version="1.0" encoding="UTF-8"?>
<svg width="250" height="250" version="1.1" viewBox="0 0 250 250.00001" xmlns="http://www.w3.org/2000/svg" xmlns:cc="http://creativecommons.org/ns#" xmlns:dc="http://purl.org/dc/elements/1.1/" xmlns:rdf="http://www.w3.org/1999/02/22-rdf-syntax-ns#" xmlns:xlink="http://www.w3.org/1999/xlink"><title>Prime 653</title><defs><linearGradient id="a" x1="78.521919" x2="78.521919" y1="996.77972" y2="965.56146" gradientTransform="matrix(4.3124232,0,0,4.3124232,-228.89008,-3234.3353)" gradientUnits="userSpaceOnUse"><stop stop-color="#9e0008" offset="0"/><stop stop-color="#fff65f" offset="1"/></linearGradient></defs><metadata><rdf:RDF><cc:Work rdf:about=""><dc:format>image/svg+xml</dc:format><dc:type rdf:resource="http://purl.org/dc/dcmitype/StillImage"/><dc:title>Prime 653</dc:title><dc:date>24 September 2018</dc:date><dc:creator><cc:Agent><dc:title>Samuel Newhouse</dc:title></cc:Agent></dc:creator><dc:rights><cc:Agent><dc:title>Samuel Newhouse</dc:title></cc:Agent></dc:rights><dc:publisher><cc:Agent><dc:title/></cc:Agent></dc:publisher><dc:language>English</dc:language><dc:subject><rdf:Bag/></dc:subject><dc:contributor><cc:Agent><dc:title>Samuel Newhouse</dc:title></cc:Agent></dc:contributor></cc:Work></rdf:RDF></metadata><g transform="translate(0,-872.51965)"><g fill="url(#a)" stroke-width="4.31242323" aria-label="653"><path d="m44.551747 931.28079q9.751826 0 17.479688 1.10398 7.727863 1.10398 11.959787 2.57595v10.11982h-23.919573q-4.783915 0-8.831843 2.02396-4.047928 1.83997-6.991875 6.62389-2.943948 4.78391-4.599918 12.69577-1.655971 7.91186-1.655971 20.05564 4.231925-1.47197 9.01584-2.02396 4.967911-0.73599 8.463849-0.73599 16.007714 0 25.023553 9.93582 9.01584 9.75183 9.01584 30.54343 0 20.0557-9.383833 29.8075t-27.415511 9.7518q-18.031679 0-27.415511-9.5678-9.383833-9.5678-9.383833-29.0715v-40.47927q0-27.5995 10.303816-40.47927 10.303817-12.87977 28.335495-12.87977zm-16.559705 65.31883v28.51948q0 13.7998 4.231925 19.8717 4.231924 5.8879 10.487813 5.8879 6.255888 0 10.487813-6.0719 4.231924-6.0719 4.231924-20.6077 0-7.5438-0.919983-12.6957-0.919984-5.3359-3.311941-8.6479-2.391957-3.31193-6.255889-4.7839-3.863931-1.47198-9.751826-1.47198z"/><path d="m117.15858 985.55982h5.5199q21.52762 0 31.46344 9.75182 9.93582 9.75186 9.93582 29.80746 0 19.5037-9.93582 29.0715t-31.46344 9.5678q-9.75183 0-17.47969-1.104-7.727861-1.1039-11.959785-2.5759v-10.1198h25.759545q11.77579 0 17.29569-5.7039 5.7039-5.8879 5.7039-19.1357 0-13.7997-5.7039-19.6876-5.5199-6.07193-17.29569-6.07193h-23.919578v-66.23882h64.398848v13.79976h-42.31924z"/><path d="m204.52827 931.28079q17.29569 0 26.49553 9.01584 9.38383 9.01583 9.38383 25.02355 0 10.48781-4.96791 17.47969-4.78392 6.80788-12.51178 10.67181v0.73598q4.78392 1.65597 8.64785 4.96792 4.04792 3.12792 6.80788 7.54382 2.75995 4.232 4.23192 9.5679 1.47197 5.1519 1.47197 10.6718 0 18.0317-9.93582 27.4155t-31.46344 9.3838q-9.75182 0-17.47969-1.104-7.72786-1.1039-11.95978-2.5759v-10.1198h25.75954q22.99959 0 22.99959-22.9996 0-13.2478-5.7039-19.1357-5.5199-5.8879-17.29569-5.8879h-14.71974v-14.53571h12.87977q21.15962 0 21.15962-22.07961 0-9.75183-5.1519-14.90373-5.15191-5.33591-14.16775-5.33591h-23.91958v-10.11982q4.23193-1.47197 11.95979-2.57595t17.47969-1.10398z"/></g></g></svg>
