<?xml version="1.0" encoding="UTF-8"?>
<svg width="250" height="250" version="1.1" viewBox="0 0 250 250.00001" xmlns="http://www.w3.org/2000/svg" xmlns:cc="http://creativecommons.org/ns#" xmlns:dc="http://purl.org/dc/elements/1.1/" xmlns:rdf="http://www.w3.org/1999/02/22-rdf-syntax-ns#"><title>Prime 101</title><metadata><rdf:RDF><cc:Work rdf:about=""><dc:format>image/svg+xml</dc:format><dc:type rdf:resource="http://purl.org/dc/dcmitype/StillImage"/><dc:title>Prime 101</dc:title><dc:date>24 September 2018</dc:date><dc:creator><cc:Agent><dc:title>Samuel Newhouse</dc:title></cc:Agent></dc:creator><dc:rights><cc:Agent><dc:title>Samuel Newhouse</dc:title></cc:Agent></dc:rights><dc:publisher><cc:Agent><dc:title/></cc:Agent></dc:publisher><dc:language>English</dc:language><dc:subject><rdf:Bag/></dc:subject><dc:contributor><cc:Agent><dc:title>Samuel Newhouse</dc:title></cc:Agent></dc:contributor></cc:Work></rdf:RDF></metadata><g transform="translate(0,-872.51965)"><g stroke-width="1.56432402" aria-label="101"><path d="m5.2925337 954.58632q9.2392903-3.07976 17.0120263-5.35292 7.846063-2.34649 13.785607-3.88637 6.012871-1.53988 9.825911-2.27316 3.886368-0.8066 5.206267-0.8066 2.713125 0 3.959696 1.61321 1.319898 1.53988 1.319898 4.10635 0 0.58662-0.146655 3.07976-0.07333 2.49314-0.293311 6.30618-0.219983 3.81304-0.513294 8.65267-0.219983 4.7663-0.513294 9.89924-0.293311 5.05961-0.586621 10.19255-0.219984 5.13294-0.439967 9.5326-0.366638 6.74617-0.733277 13.71227-0.29331 6.9661-0.586621 13.8589-0.293311 6.8929-0.513294 13.5657-0.146655 6.6728-0.219983 12.8323l-15.985438 1.9065-1.173243-0.073q0.439966-4.9129 0.806604-10.5592 0.366639-5.6462 0.65995-11.0725 0.366638-5.4995 0.586621-10.2658t0.366639-7.9194q0.366638-9.606 0.806604-21.85168 0.513294-12.24573 0.513294-26.91127 0-4.17968-1.319898-6.01287-1.246571-1.90652-4.106351-1.90652-2.933108 0-9.679257 1.24657-6.67282 1.17324-16.5720593 3.9597z"/><path d="m137.5757 941.46066q10.19255 0 18.84522 3.37308 8.726 3.37307 14.95885 9.97257 6.30618 6.59949 9.82591 16.27874 3.59306 9.60593 3.59306 22.14497 0 9.16598-1.90652 17.23198-1.90652 7.9927-5.35292 14.7389-3.37308 6.6728-8.2127 11.9524-4.83963 5.2796-10.77918 8.946-5.86621 3.6664-12.61236 5.5729t-14.07892 1.9065q-10.04589 0-18.77189-3.3731-8.72599-3.2997-15.178832-9.8259-6.379509-6.5995-10.045894-16.352-3.666385-9.7526-3.666385-22.5117 0-9.01926 1.90652-16.93865 1.90652-7.99272 5.352922-14.66554 3.519729-6.67282 8.359358-11.95241 4.912951-5.2796 10.852501-8.94598 5.93954-3.66639 12.75902-5.57291 6.81947-1.97985 14.15224-1.97985zm-0.65995 102.43884q7.03946 0 12.53904-3.1531 5.57291-3.2265 9.38595-8.8727 3.88636-5.7195 5.86621-13.5656 2.05318-7.9194 2.05318-17.3787 0-6.67279-1.17325-12.90565-1.09991-6.30618-3.22642-11.80576-2.1265-5.5729-5.20626-10.11922-3.00644-4.54632-6.89281-7.84606-3.88636-3.29975-8.50601-5.13294-4.61964-1.83319-9.89924-1.83319-6.30618 0-11.80576 2.9331-5.42625 2.85978-9.45927 8.43269-3.9597 5.49958-6.23285 13.4923-2.27316 7.91939-2.27316 18.03861 0 9.75262 2.41981 18.77192 2.41982 8.9459 6.96613 15.8388 4.54632 6.8928 10.92583 10.9991 6.45284 4.1064 14.51888 4.1064z"/><path d="m193.59806 954.58632q9.23929-3.07976 17.01203-5.35292 7.84606-2.34649 13.7856-3.88637 6.01287-1.53988 9.82592-2.27316 3.88636-0.8066 5.20626-0.8066 2.71313 0 3.9597 1.61321 1.3199 1.53988 1.3199 4.10635 0 0.58662-0.14666 3.07976-0.0733 2.49314-0.29331 6.30618-0.21998 3.81304-0.51329 8.65267-0.21999 4.7663-0.5133 9.89924-0.29331 5.05961-0.58662 10.19255-0.21998 5.13294-0.43997 9.5326-0.36663 6.74617-0.73327 13.71227-0.29331 6.9661-0.58662 13.8589-0.29332 6.8929-0.5133 13.5657-0.14665 6.6728-0.21998 12.8323l-15.98544 1.9065-1.17324-0.073q0.43996-4.9129 0.8066-10.5592 0.36664-5.6462 0.65995-11.0725 0.36664-5.4995 0.58662-10.2658 0.21999-4.7663 0.36664-7.9194 0.36664-9.606 0.80661-21.85168 0.51329-12.24573 0.51329-26.91127 0-4.17968-1.3199-6.01287-1.24657-1.90652-4.10635-1.90652-2.93311 0-9.67926 1.24657-6.67282 1.17324-16.57206 3.9597z"/></g></g></svg>
